<?xml version="1.0" standalone="no"?>
<!DOCTYPE svg PUBLIC "-//W3C//DTD SVG 1.1//EN"
  "http://www.w3.org/Graphics/SVG/1.1/DTD/svg11.dtd">
<svg width="1045.0" height="1185.0" version="1.1"
  xmlns="http://www.w3.org/2000/svg">
<rect x="15" y="15" width="500.0" height="375.0" rx="0" ry="0" style="stroke:black;stroke-width:1;fill:white;"/><rect x="15.0" y="15.0" width="375.0" height="375.0" rx="0" ry="0" style="fill:blue;"/><text x="199.5" y="202.5" style="fill:black;"><tspan x="199.5" dy="0em">Hat</tspan></text><rect x="390.0" y="15.0" width="125.0" height="250.0" rx="0" ry="0" style="fill:green;"/><text x="447.5" y="140.0" style="fill:black;"><tspan x="447.5" dy="0em">Shoes</tspan></text><rect x="390.0" y="265.0" width="125.0" height="125.0" rx="0" ry="0" style="fill:orange;"/><text x="446.5" y="327.5" style="fill:black;"><tspan x="446.5" dy="0em">Dragon</tspan></text><rect x="15.0" y="15.0" width="375.0" height="250.0" rx="0" ry="0" style="fill:red;"/><text x="199.5" y="140.0" style="fill:black;"><tspan x="199.5" dy="0em">Bag</tspan></text><rect x="15.0" y="265.0" width="375.0" height="125.0" rx="0" ry="0" style="fill:purple;"/><text x="195.5" y="327.5" style="fill:black;"><tspan x="195.5" dy="0em">Slipper</tspan></text><rect x="530.0" y="15" width="500.0" height="375.0" rx="0" ry="0" style="stroke:black;stroke-width:1;fill:white;"/><rect x="530.0" y="265.0" width="375.0" height="125.0" rx="0" ry="0" style="fill:purple;"/><text x="710.5" y="327.5" style="fill:black;"><tspan x="710.5" dy="0em">Slipper</tspan></text><rect x="530.0" y="15.0" width="375.0" height="250.0" rx="0" ry="0" style="fill:red;"/><text x="714.5" y="140.0" style="fill:black;"><tspan x="714.5" dy="0em">Bag</tspan></text><rect x="905.0" y="265.0" width="125.0" height="125.0" rx="0" ry="0" style="fill:orange;"/><text x="961.5" y="327.5" style="fill:black;"><tspan x="961.5" dy="0em">Dragon</tspan></text><rect x="905.0" y="15.0" width="125.0" height="250.0" rx="0" ry="0" style="fill:green;"/><text x="962.5" y="140.0" style="fill:black;"><tspan x="962.5" dy="0em">Shoes</tspan></text><rect x="530.0" y="15.0" width="375.0" height="375.0" rx="0" ry="0" style="fill:blue;"/><text x="714.5" y="202.5" style="fill:black;"><tspan x="714.5" dy="0em">Hat</tspan></text><rect x="15" y="405.0" width="375.0" height="250.0" rx="0" ry="0" style="stroke:black;stroke-width:1;fill:white;"/><rect x="15.0" y="405.0" width="375.0" height="125.0" rx="0" ry="0" style="fill:blue;"/><text x="199.5" y="467.5" style="fill:black;"><tspan x="199.5" dy="0em">Hat</tspan></text><rect x="15.0" y="530.0" width="250.0" height="125.0" rx="0" ry="0" style="fill:red;"/><text x="137.0" y="592.5" style="fill:black;"><tspan x="137.0" dy="0em">Bag</tspan></text><rect x="265.0" y="530.0" width="125.0" height="125.0" rx="0" ry="0" style="fill:purple;"/><text x="320.5" y="592.5" style="fill:black;"><tspan x="320.5" dy="0em">Slipper</tspan></text><rect x="15.0" y="405.0" width="250.0" height="250.0" rx="0" ry="0" style="fill:green;"/><text x="135.0" y="530.0" style="fill:black;"><tspan x="135.0" dy="0em">Shoes</tspan></text><rect x="265.0" y="405.0" width="125.0" height="250.0" rx="0" ry="0" style="fill:orange;"/><text x="321.5" y="530.0" style="fill:black;"><tspan x="321.5" dy="0em">Dragon</tspan></text><rect x="405.0" y="405.0" width="375.0" height="250.0" rx="0" ry="0" style="stroke:black;stroke-width:1;fill:white;"/><rect x="655.0" y="405.0" width="125.0" height="250.0" rx="0" ry="0" style="fill:orange;"/><text x="711.5" y="530.0" style="fill:black;"><tspan x="711.5" dy="0em">Dragon</tspan></text><rect x="405.0" y="405.0" width="250.0" height="250.0" rx="0" ry="0" style="fill:green;"/><text x="525.0" y="530.0" style="fill:black;"><tspan x="525.0" dy="0em">Shoes</tspan></text><rect x="655.0" y="530.0" width="125.0" height="125.0" rx="0" ry="0" style="fill:purple;"/><text x="710.5" y="592.5" style="fill:black;"><tspan x="710.5" dy="0em">Slipper</tspan></text><rect x="405.0" y="530.0" width="250.0" height="125.0" rx="0" ry="0" style="fill:red;"/><text x="527.0" y="592.5" style="fill:black;"><tspan x="527.0" dy="0em">Bag</tspan></text><rect x="405.0" y="405.0" width="375.0" height="125.0" rx="0" ry="0" style="fill:blue;"/><text x="589.5" y="467.5" style="fill:black;"><tspan x="589.5" dy="0em">Hat</tspan></text><rect x="15" y="670.0" width="250.0" height="500.0" rx="0" ry="0" style="stroke:black;stroke-width:1;fill:white;"/><rect x="15.0" y="670.0" width="125.0" height="375.0" rx="0" ry="0" style="fill:blue;"/><text x="74.5" y="857.5" style="fill:black;"><tspan x="74.5" dy="0em">Hat</tspan></text><rect x="140.0" y="670.0" width="125.0" height="375.0" rx="0" ry="0" style="fill:red;"/><text x="199.5" y="857.5" style="fill:black;"><tspan x="199.5" dy="0em">Bag</tspan></text><rect x="15.0" y="1045.0" width="250.0" height="125.0" rx="0" ry="0" style="fill:green;"/><text x="135.0" y="1107.5" style="fill:black;"><tspan x="135.0" dy="0em">Shoes</tspan></text><rect x="140.0" y="670.0" width="125.0" height="375.0" rx="0" ry="0" style="fill:purple;"/><text x="195.5" y="857.5" style="fill:black;"><tspan x="195.5" dy="0em">Slipper</tspan></text><rect x="15.0" y="1045.0" width="250.0" height="125.0" rx="0" ry="0" style="fill:orange;"/><text x="134.0" y="1107.5" style="fill:black;"><tspan x="134.0" dy="0em">Dragon</tspan></text><rect x="280.0" y="670.0" width="250.0" height="500.0" rx="0" ry="0" style="stroke:black;stroke-width:1;fill:white;"/><rect x="280.0" y="1045.0" width="250.0" height="125.0" rx="0" ry="0" style="fill:orange;"/><text x="399.0" y="1107.5" style="fill:black;"><tspan x="399.0" dy="0em">Dragon</tspan></text><rect x="405.0" y="670.0" width="125.0" height="375.0" rx="0" ry="0" style="fill:purple;"/><text x="460.5" y="857.5" style="fill:black;"><tspan x="460.5" dy="0em">Slipper</tspan></text><rect x="280.0" y="1045.0" width="250.0" height="125.0" rx="0" ry="0" style="fill:green;"/><text x="400.0" y="1107.5" style="fill:black;"><tspan x="400.0" dy="0em">Shoes</tspan></text><rect x="405.0" y="670.0" width="125.0" height="375.0" rx="0" ry="0" style="fill:red;"/><text x="464.5" y="857.5" style="fill:black;"><tspan x="464.5" dy="0em">Bag</tspan></text><rect x="280.0" y="670.0" width="125.0" height="375.0" rx="0" ry="0" style="fill:blue;"/><text x="339.5" y="857.5" style="fill:black;"><tspan x="339.5" dy="0em">Hat</tspan></text></svg>